<svg xmlns="http://www.w3.org/2000/svg" viewBox="0 0 14024.56 5000.02">
  <path
    fill="#2B2A29"
    fill-rule="evenodd"
    d="M1442.87 0.53h2600c770 0 1400 630 1400 1400v2200c0 770-630 1400-1400 1400h-2600c-770 0-1400-630-1400-1400v-2200c0-770 630-1400 1400-1400Zm2600 800h-2600c-164.16 0-313.99 67.75-423.12 176.88-109.13 109.13-176.88 258.96-176.88 423.12v2200c0 164.16 67.75 313.99 176.88 423.12 109.13 109.13 258.96 176.88 423.12 176.88h2600c164.16 0 313.99-67.75 423.12-176.88 109.13-109.13 176.88-258.96 176.88-423.12v-2200c0-164.16-67.75-313.99-176.88-423.12-109.13-109.13-258.96-176.88-423.12-176.88Z"
  />
  <path d="M5442.87 2500.53h3124.56" fill="none" stroke="#2B2A29" stroke-width="300" />
  <path
    fill="#4210CC"
    d="M9967.43 0.53h2600c770 0 1400 630 1400 1400v2200c0 770-630 1400-1400 1400h-2600c-770 0-1400-630-1400-1400v-2200c0-770 630-1400 1400-1400Z"
  />
</svg>
